<?xml version="1.0" encoding="utf-8"?>
<!-- Generator: Adobe Illustrator 22.0.1, SVG Export Plug-In . SVG Version: 6.00 Build 0)  -->
<svg version="1.1" id="Layer_1" xmlns="http://www.w3.org/2000/svg" xmlns:xlink="http://www.w3.org/1999/xlink" x="0px" y="0px"
	 width="250px" height="122.8px" viewBox="0 0 250 122.8" style="enable-background:new 0 0 250 122.8;" xml:space="preserve">
<g>
	<polygon points="131.2,94.5 129.4,94.5 129.4,93.9 133.8,93.9 133.8,94.5 131.9,94.5 131.9,99 131.2,99 	"/>
	<polygon points="139.5,94.4 139.5,94.4 137.8,99 137.1,99 135.3,94.4 135.3,94.4 135.3,99 134.6,99 134.6,93.9 135.9,93.9 
		137.5,98.1 137.5,98.1 139,93.9 140.3,93.9 140.3,99 139.5,99 	"/>
	<path style="fill:#F78E1E;" d="M23.3,37.2L66.6,47c0,0,21.3-7.7,38.9-8.1l-3.9,8.3l8.4,7.7l-11.2,8.4l20-2.5l-7.4,7.6l11.1-1.6
		c0,0,12.4,13.4,14.1,15.6c1.7,2.2,10.2,11.5,7.9,17.7c-2.3,6.2-9,17.6-16.1,22.4c0,0,20.8,3.1,41.9-7.2
		c21.1-10.3,33.4-30.7,38.5-45.8c5.1-15.1,2.1-23.8,1-24.5l14.3-8.3c0,0,22.5-4.4,24,3.5c0,0,6.2-12.6-3.8-19.1
		c-10.1-6.6-17.7-6.7-19.1-7.2c0,0,1-5.9-25.3-11.7c-26.3-5.8-58.2,1.8-67.8,4.4c-9.6,2.7-30.2,7.8-32.8,8.5
		c-2.6,0.7-31.8,7.4-47.2,7.9C36.7,23.6,9.1,25,0,21.5l30,13.7L23.3,37.2z"/>
	<path d="M74.9,23.1L38.3,34.2l-19.8-7.6C18.5,26.6,40.7,31.3,74.9,23.1"/>
	<path d="M228.1,18.6c-6.8-1.5-5.6-3.2-9.3-5.6c-3.3-2.1-6-3.3-15.9-5.8c-9.9-2.5-23.8-5.5-50.3-1.1c-26.5,4.4-112,30.1-112,30.1
		l25.2,5.6c19.9-6.9,39.1-8.8,46.4-7.5l-5.3,11.3c0,0,2.1,1.9,5.4,4.9l11.5-1.1l-9,7.5l16.2-2.6l-7.2,7.3l14.4-2l-9.3,7.3
		c9,9.4,17.7,19.9,19.8,26.7c3.1,10.5-10.4,24.4-10.4,24.4s39.3,1.9,60.1-37.9c20-38.1-2-42.6-6.6-45.7l17.1,5.2l13.4-7.7
		c0,0,19.9-3.7,23.7,1C247.3,34.7,246.4,22.7,228.1,18.6"/>
	<path style="fill:#FFFFFF;" d="M215.7,29.1l-7,4.2C162.9,20.5,149.1,20.7,65.6,38c0,0,70.1-18.3,94.4-17.9
		C184.3,20.7,215.7,29.1,215.7,29.1"/>
	<path style="fill:#FFFFFF;" d="M211.1,17.5l-6.1-6.6c4.2,1.3,7.2,2.6,8.8,3.5c1.7,1.1,2.2,2.3,2,3.5L211.1,17.5z M242.4,28.5
		c-5.4-7.6-15.5-8.8-23.9-10.7c0.7-3.3-5.4-5.9-10.6-7.5c0,0-20.5-7-38.1-4.3c12.3-0.2,23.7,1.7,31.9,3.9l8.5,9.2l4.8,0.5
		c-0.4,0.6-0.8,1.2-1.3,1.7l-1.8,1.5c0.1-0.1,0.3-0.1,0.4-0.2c-0.1,0.1-0.2,0.1-0.2,0.1c0.3-0.1,0.6-0.3,0.8-0.4
		C229,16.5,242.4,28.5,242.4,28.5"/>
	<path style="fill:#FFFFFF;" d="M126.7,37.6l-3.5,6.6c0,0,18.9,15,23.4,19.7c4.5,4.7,21.4,23.5,18.4,37.1c0,0,15.9-11.3,24.4-24.9
		c5-8,17.9-29.1,2.5-37.1c-15.4-8-37.3-6.1-48.7-4.2C131.7,36.6,126.7,37.6,126.7,37.6"/>
	<path d="M161.5,88.8c7.9-5.2,14.9-11.3,17.9-18.3c0,0-14.4,12.2-26.3,7.5C141.1,73.3,161.5,88.8,161.5,88.8"/>
	<path d="M144.5,80.4c9-3.3,17.2-7.8,21.8-14c0,0-17,8.8-27.5,1.7C128.3,61,144.5,80.4,144.5,80.4"/>
</g>
</svg>
